<svg xmlns="http://www.w3.org/2000/svg" viewBox="0 0 256 257">
  <defs>
    <linearGradient id="a" x1="-.828%" x2="57.636%" y1="7.652%" y2="78.411%">
      <stop stop-color="#41D1FF" offset="0%" />
      <stop stop-color="#BD34FE" offset="100%" />
    </linearGradient>
    <linearGradient id="b" x1="43.376%" x2="50.316%" y1="2.242%" y2="89.03%">
      <stop stop-color="#FFEA83" offset="0%" />
      <stop stop-color="#FFDD35" offset="8.333%" />
      <stop stop-color="#FFA800" offset="100%" />
    </linearGradient>
  </defs>
  <path
    fill="url(#a)"
    d="M255.153 37.938L134.897 252.976c-2.483 4.44-8.862 4.466-11.382.048L.875 37.958c-2.746-4.814 1.371-10.646 6.827-9.67l120.044 21.41a6.537 6.537 0 002.322-.002l118.27-21.404c5.438-.983 9.574 4.796 6.858 9.62z"
  />
  <path
    fill="url(#b)"
    d="M185.432.063L96.44 17.501a3.268 3.268 0 00-2.634 3.014l-5.474 92.456c-.145 2.452 2.236 4.333 4.57 3.509l26.343-9.302c2.772-.979 5.529 1.555 4.682 4.35l-7.834 26.041c-.83 2.76 1.872 5.267 4.525 4.236l16.214-6.254c2.767-1.067 5.543 1.483 4.66 4.295l-12.44 39.451c-.865 2.742 1.848 5.26 4.506 4.22l7.304-2.882c2.76-1.088 5.546 1.48 4.656 4.296l-19.784 61.075c-.998 3.079 3.26 5.113 5.152 2.38l1.164-1.669 122.872-214.68c1.563-2.732-.793-6.008-3.875-5.407L187.81 13.29c-2.794.559-5.175-2.265-4.267-5.003l6.386-19.485C190.74 1.746 188.29-.436 185.432.063z"
  />
</svg>
